<svg xmlns="http://www.w3.org/2000/svg" xmlns:xlink="http://www.w3.org/1999/xlink" width="2000" zoomAndPan="magnify" viewBox="0 0 1500 1499.999933" height="2000" preserveAspectRatio="xMidYMid meet" version="1.0"><defs><g/><clipPath id="488dddea8a"><path d="M 200.382812 2.167969 L 616 2.167969 L 616 361.40625 L 200.382812 361.40625 Z M 200.382812 2.167969 " clip-rule="nonzero"/></clipPath><clipPath id="c723258413"><path d="M 241.445312 221.378906 L 342.324219 221.378906 L 342.324219 321 L 241.445312 321 Z M 241.445312 221.378906 " clip-rule="nonzero"/></clipPath><clipPath id="a896b2da2e"><path d="M 0.238281 478 L 815.519531 478 L 815.519531 641 L 0.238281 641 Z M 0.238281 478 " clip-rule="nonzero"/></clipPath><clipPath id="655ed0a023"><rect x="0" width="816" y="0" height="163"/></clipPath><clipPath id="fe9dba2ba1"><rect x="0" width="816" y="0" height="641"/></clipPath></defs><g transform="matrix(1, 0, 0, 1, 342, 415)"><g clip-path="url(#fe9dba2ba1)"><g clip-path="url(#488dddea8a)"><path fill="#0097b2" d="M 496.476562 38.226562 L 547.648438 38.226562 C 548.589844 38.226562 549.527344 38.273438 550.464844 38.367188 C 551.402344 38.460938 552.332031 38.597656 553.257812 38.78125 C 554.179688 38.964844 555.09375 39.195312 555.992188 39.46875 C 556.894531 39.742188 557.777344 40.058594 558.648438 40.417969 C 559.519531 40.78125 560.367188 41.183594 561.199219 41.625 C 562.03125 42.070312 562.835938 42.554688 563.617188 43.078125 C 564.402344 43.601562 565.15625 44.160156 565.882812 44.757812 C 566.613281 45.355469 567.308594 45.988281 567.972656 46.652344 C 568.640625 47.320312 569.269531 48.015625 569.867188 48.746094 C 570.464844 49.472656 571.027344 50.230469 571.550781 51.011719 C 572.070312 51.792969 572.554688 52.601562 573 53.433594 C 573.441406 54.261719 573.84375 55.113281 574.203125 55.980469 C 574.566406 56.851562 574.882812 57.738281 575.15625 58.640625 C 575.429688 59.539062 575.65625 60.453125 575.839844 61.375 C 576.023438 62.300781 576.164062 63.230469 576.253906 64.167969 C 576.347656 65.105469 576.394531 66.042969 576.394531 66.984375 L 576.394531 131.460938 C 576.394531 136.304688 576.394531 139.9375 573.972656 144.78125 L 581.234375 144.78125 C 605.816406 144.78125 615.140625 159.3125 615.140625 177.472656 L 615.140625 222.273438 C 615.140625 240.4375 608.238281 256.179688 581.234375 256.179688 L 573.972656 256.179688 C 576.394531 259.8125 576.394531 264.65625 576.394531 269.496094 L 576.394531 332.726562 C 576.394531 333.667969 576.347656 334.609375 576.253906 335.546875 C 576.164062 336.484375 576.023438 337.414062 575.839844 338.335938 C 575.65625 339.257812 575.429688 340.171875 575.15625 341.074219 C 574.882812 341.972656 574.566406 342.859375 574.203125 343.726562 C 573.84375 344.597656 573.441406 345.449219 573 346.277344 C 572.554688 347.109375 572.070312 347.914062 571.546875 348.699219 C 571.027344 349.480469 570.464844 350.234375 569.867188 350.964844 C 569.269531 351.691406 568.640625 352.386719 567.972656 353.054688 C 567.308594 353.71875 566.609375 354.351562 565.882812 354.949219 C 565.15625 355.546875 564.402344 356.105469 563.617188 356.628906 C 562.835938 357.152344 562.027344 357.636719 561.199219 358.078125 C 560.367188 358.523438 559.519531 358.925781 558.648438 359.285156 C 557.777344 359.644531 556.894531 359.960938 555.992188 360.234375 C 555.089844 360.507812 554.179688 360.738281 553.253906 360.921875 C 552.332031 361.105469 551.402344 361.242188 550.464844 361.335938 C 549.527344 361.425781 548.589844 361.472656 547.648438 361.472656 L 225.683594 361.472656 C 224.871094 361.472656 224.0625 361.429688 223.253906 361.347656 C 222.445312 361.265625 221.644531 361.144531 220.847656 360.984375 C 220.050781 360.824219 219.265625 360.625 218.488281 360.390625 C 217.710938 360.152344 216.949219 359.878906 216.199219 359.566406 C 215.449219 359.257812 214.714844 358.910156 214 358.527344 C 213.285156 358.140625 212.589844 357.726562 211.914062 357.273438 C 211.238281 356.824219 210.585938 356.339844 209.957031 355.824219 C 209.328125 355.308594 208.730469 354.765625 208.152344 354.191406 C 207.578125 353.617188 207.035156 353.019531 206.515625 352.390625 C 206 351.765625 205.515625 351.113281 205.066406 350.4375 C 204.613281 349.765625 204.195312 349.070312 203.808594 348.355469 C 203.425781 347.640625 203.074219 346.90625 202.761719 346.15625 C 202.449219 345.410156 202.175781 344.644531 201.9375 343.867188 C 201.699219 343.09375 201.496094 342.308594 201.335938 341.511719 C 201.175781 340.714844 201.050781 339.914062 200.96875 339.105469 C 200.886719 338.296875 200.84375 337.488281 200.839844 336.675781 L 200.839844 68.195312 C 200.839844 67.214844 200.890625 66.238281 200.988281 65.261719 C 201.089844 64.285156 201.234375 63.316406 201.425781 62.355469 C 201.621094 61.394531 201.859375 60.445312 202.148438 59.507812 C 202.433594 58.570312 202.765625 57.648438 203.140625 56.742188 C 203.515625 55.835938 203.9375 54.953125 204.398438 54.089844 C 204.863281 53.222656 205.367188 52.382812 205.914062 51.570312 C 206.457031 50.753906 207.042969 49.96875 207.664062 49.210938 C 208.285156 48.453125 208.941406 47.726562 209.636719 47.035156 C 210.328125 46.339844 211.054688 45.683594 211.8125 45.058594 C 212.570312 44.4375 213.355469 43.851562 214.171875 43.308594 C 214.984375 42.761719 215.824219 42.257812 216.6875 41.792969 C 217.554688 41.332031 218.4375 40.910156 219.34375 40.535156 C 220.25 40.15625 221.167969 39.824219 222.105469 39.539062 C 223.042969 39.253906 223.996094 39.011719 224.957031 38.820312 C 225.917969 38.625 226.886719 38.480469 227.859375 38.378906 C 228.835938 38.28125 229.8125 38.230469 230.792969 38.226562 L 393.554688 38.226562 L 468.628906 3.113281 C 473.472656 0.691406 479.527344 3.113281 481.949219 7.957031 Z M 496.476562 38.226562 " fill-opacity="1" fill-rule="nonzero"/></g><path fill="#cbd2d8" d="M 499.324219 145.289062 L 547.332031 145.082031 C 552.175781 143.875 557.019531 137.515625 557.019531 131.460938 L 557.019531 97.558594 L 256.730469 97.558594 C 250.675781 97.558594 245.832031 92.714844 245.832031 87.871094 C 245.832031 87.15625 245.902344 86.449219 246.042969 85.746094 C 246.183594 85.042969 246.390625 84.363281 246.664062 83.703125 C 246.9375 83.039062 247.273438 82.414062 247.667969 81.816406 C 248.066406 81.222656 248.519531 80.671875 249.023438 80.164062 C 249.53125 79.660156 250.082031 79.207031 250.675781 78.8125 C 251.269531 78.414062 251.898438 78.078125 252.558594 77.804688 C 253.222656 77.53125 253.902344 77.324219 254.605469 77.183594 C 255.304688 77.042969 256.015625 76.972656 256.730469 76.972656 L 312.429688 76.972656 L 351.175781 58.8125 L 234.742188 58.8125 C 233.871094 58.820312 233.007812 58.910156 232.152344 59.085938 C 231.296875 59.261719 230.46875 59.519531 229.664062 59.855469 C 228.859375 60.195312 228.09375 60.605469 227.371094 61.09375 C 226.644531 61.578125 225.976562 62.128906 225.359375 62.746094 C 224.742188 63.363281 224.191406 64.035156 223.703125 64.757812 C 223.21875 65.484375 222.804688 66.246094 222.46875 67.050781 C 222.128906 67.855469 221.875 68.6875 221.699219 69.539062 C 221.523438 70.394531 221.429688 71.257812 221.421875 72.128906 L 221.421875 328.828125 C 221.429688 329.703125 221.523438 330.566406 221.699219 331.417969 C 221.875 332.273438 222.128906 333.101562 222.46875 333.90625 C 222.804688 334.710938 223.21875 335.476562 223.703125 336.199219 C 224.191406 336.925781 224.742188 337.59375 225.359375 338.210938 C 225.976562 338.828125 226.644531 339.378906 227.371094 339.867188 C 228.09375 340.351562 228.859375 340.765625 229.664062 341.101562 C 230.46875 341.441406 231.296875 341.695312 232.152344 341.871094 C 233.007812 342.046875 233.871094 342.140625 234.742188 342.148438 L 543.699219 342.148438 C 544.574219 342.140625 545.4375 342.046875 546.289062 341.871094 C 547.144531 341.695312 547.972656 341.441406 548.777344 341.101562 C 549.582031 340.765625 550.347656 340.351562 551.070312 339.867188 C 551.796875 339.378906 552.464844 338.828125 553.082031 338.210938 C 553.699219 337.59375 554.25 336.925781 554.738281 336.199219 C 555.222656 335.476562 555.636719 334.710938 555.972656 333.90625 C 556.3125 333.101562 556.566406 332.273438 556.742188 331.417969 C 556.917969 330.566406 557.011719 329.703125 557.019531 328.828125 L 557.019531 269.496094 C 557.011719 268.625 556.917969 267.761719 556.742188 266.90625 C 556.566406 266.054688 556.3125 265.222656 555.972656 264.417969 C 555.636719 263.613281 555.222656 262.851562 554.738281 262.125 C 554.25 261.402344 553.699219 260.730469 553.082031 260.113281 C 552.464844 259.496094 551.796875 258.945312 551.070312 258.460938 C 550.347656 257.972656 549.582031 257.5625 548.777344 257.222656 C 547.972656 256.886719 547.144531 256.628906 546.289062 256.453125 C 545.4375 256.277344 544.574219 256.1875 543.699219 256.179688 L 482.371094 256.179688 C 455.355469 256.179688 449.679688 241.648438 449.679688 222.273438 L 449.679688 177.472656 C 449.679688 147.203125 470.261719 145.289062 499.324219 145.289062 Z M 499.324219 145.289062 " fill-opacity="1" fill-rule="nonzero"/><path fill="#5ce1e6" d="M 359.652344 76.972656 L 492.84375 76.972656 L 467.417969 26.128906 Z M 359.652344 76.972656 " fill-opacity="1" fill-rule="nonzero"/><path fill="#b0bbc4" d="M 515.851562 76.972656 L 557.019531 76.972656 L 557.019531 72.128906 C 557.011719 71.257812 556.917969 70.394531 556.742188 69.539062 C 556.566406 68.6875 556.3125 67.855469 555.972656 67.050781 C 555.636719 66.246094 555.222656 65.484375 554.738281 64.757812 C 554.25 64.035156 553.699219 63.363281 553.082031 62.746094 C 552.464844 62.128906 551.796875 61.578125 551.070312 61.09375 C 550.347656 60.605469 549.582031 60.195312 548.777344 59.855469 C 547.972656 59.519531 547.144531 59.261719 546.289062 59.085938 C 545.4375 58.910156 544.574219 58.820312 543.699219 58.8125 L 506.164062 58.8125 Z M 515.851562 76.972656 " fill-opacity="1" fill-rule="nonzero"/><path fill="#cbd2d8" d="M 581.234375 165.367188 L 482.371094 165.367188 C 475.105469 165.367188 470.261719 170.207031 470.261719 177.472656 L 470.261719 222.273438 C 470.261719 229.539062 475.105469 235.59375 482.371094 235.59375 L 581.234375 235.59375 C 582.109375 235.585938 582.972656 235.496094 583.828125 235.320312 C 584.679688 235.144531 585.511719 234.886719 586.316406 234.546875 C 587.121094 234.210938 587.882812 233.800781 588.609375 233.3125 C 589.332031 232.828125 590.003906 232.273438 590.621094 231.660156 C 591.238281 231.042969 591.789062 230.371094 592.273438 229.648438 C 592.761719 228.921875 593.171875 228.15625 593.511719 227.355469 C 593.847656 226.550781 594.105469 225.71875 594.28125 224.867188 C 594.457031 224.011719 594.546875 223.148438 594.554688 222.273438 L 594.554688 177.472656 C 594.554688 170.207031 588.5 165.367188 581.234375 165.367188 Z M 581.234375 165.367188 " fill-opacity="1" fill-rule="nonzero"/><path fill="#0097b2" d="M 525.222656 200.480469 C 525.222656 201.089844 525.191406 201.699219 525.132812 202.304688 C 525.074219 202.914062 524.984375 203.515625 524.863281 204.117188 C 524.746094 204.714844 524.597656 205.304688 524.421875 205.890625 C 524.242188 206.472656 524.039062 207.046875 523.804688 207.609375 C 523.570312 208.175781 523.308594 208.726562 523.023438 209.265625 C 522.734375 209.800781 522.421875 210.324219 522.082031 210.832031 C 521.742188 211.339844 521.378906 211.828125 520.992188 212.300781 C 520.605469 212.773438 520.195312 213.226562 519.765625 213.65625 C 519.332031 214.089844 518.882812 214.496094 518.410156 214.886719 C 517.9375 215.273438 517.449219 215.636719 516.941406 215.972656 C 516.433594 216.3125 515.910156 216.625 515.371094 216.914062 C 514.835938 217.203125 514.28125 217.460938 513.71875 217.695312 C 513.15625 217.929688 512.582031 218.136719 511.996094 218.3125 C 511.414062 218.488281 510.820312 218.636719 510.222656 218.757812 C 509.625 218.875 509.023438 218.964844 508.414062 219.023438 C 507.808594 219.085938 507.199219 219.113281 506.589844 219.113281 C 505.976562 219.113281 505.367188 219.085938 504.761719 219.023438 C 504.152344 218.964844 503.550781 218.875 502.953125 218.757812 C 502.355469 218.636719 501.761719 218.488281 501.179688 218.3125 C 500.59375 218.136719 500.019531 217.929688 499.457031 217.695312 C 498.894531 217.460938 498.339844 217.203125 497.804688 216.914062 C 497.265625 216.625 496.742188 216.3125 496.234375 215.972656 C 495.726562 215.636719 495.238281 215.273438 494.765625 214.886719 C 494.292969 214.496094 493.84375 214.089844 493.410156 213.65625 C 492.980469 213.226562 492.570312 212.773438 492.183594 212.300781 C 491.796875 211.828125 491.433594 211.339844 491.09375 210.832031 C 490.753906 210.324219 490.441406 209.800781 490.152344 209.265625 C 489.867188 208.726562 489.605469 208.175781 489.371094 207.609375 C 489.136719 207.046875 488.933594 206.472656 488.753906 205.890625 C 488.578125 205.304688 488.429688 204.714844 488.3125 204.117188 C 488.191406 203.515625 488.101562 202.914062 488.042969 202.304688 C 487.984375 201.699219 487.953125 201.089844 487.953125 200.480469 C 487.953125 199.871094 487.984375 199.261719 488.042969 198.652344 C 488.101562 198.046875 488.191406 197.441406 488.3125 196.84375 C 488.429688 196.246094 488.578125 195.65625 488.753906 195.070312 C 488.933594 194.488281 489.136719 193.914062 489.371094 193.347656 C 489.605469 192.785156 489.867188 192.234375 490.152344 191.695312 C 490.441406 191.15625 490.753906 190.632812 491.09375 190.125 C 491.433594 189.621094 491.796875 189.128906 492.183594 188.65625 C 492.570312 188.1875 492.980469 187.734375 493.410156 187.304688 C 493.84375 186.871094 494.292969 186.460938 494.765625 186.074219 C 495.238281 185.6875 495.726562 185.324219 496.234375 184.984375 C 496.742188 184.648438 497.265625 184.332031 497.804688 184.046875 C 498.339844 183.757812 498.894531 183.496094 499.457031 183.261719 C 500.019531 183.03125 500.59375 182.824219 501.179688 182.648438 C 501.761719 182.46875 502.355469 182.320312 502.953125 182.203125 C 503.550781 182.085938 504.152344 181.996094 504.761719 181.933594 C 505.367188 181.875 505.976562 181.84375 506.589844 181.84375 C 507.199219 181.84375 507.808594 181.875 508.414062 181.933594 C 509.023438 181.996094 509.625 182.085938 510.222656 182.203125 C 510.820312 182.320312 511.414062 182.46875 511.996094 182.648438 C 512.582031 182.824219 513.15625 183.03125 513.71875 183.261719 C 514.28125 183.496094 514.835938 183.757812 515.371094 184.046875 C 515.910156 184.332031 516.433594 184.648438 516.941406 184.984375 C 517.449219 185.324219 517.9375 185.6875 518.410156 186.074219 C 518.882812 186.460938 519.332031 186.871094 519.765625 187.304688 C 520.195312 187.734375 520.605469 188.1875 520.992188 188.65625 C 521.378906 189.128906 521.742188 189.621094 522.082031 190.125 C 522.421875 190.632812 522.734375 191.15625 523.023438 191.695312 C 523.308594 192.234375 523.570312 192.785156 523.804688 193.347656 C 524.039062 193.914062 524.242188 194.488281 524.421875 195.070312 C 524.597656 195.65625 524.746094 196.246094 524.863281 196.84375 C 524.984375 197.441406 525.074219 198.046875 525.132812 198.652344 C 525.191406 199.261719 525.222656 199.871094 525.222656 200.480469 Z M 525.222656 200.480469 " fill-opacity="1" fill-rule="nonzero"/><g clip-path="url(#c723258413)"><path fill="#087c91" d="M 332.566406 320.683594 L 251.320312 320.683594 C 250.671875 320.683594 250.03125 320.621094 249.394531 320.496094 C 248.757812 320.371094 248.140625 320.183594 247.539062 319.933594 C 246.941406 319.683594 246.371094 319.382812 245.832031 319.019531 C 245.292969 318.660156 244.796875 318.25 244.335938 317.792969 C 243.878906 317.335938 243.46875 316.835938 243.109375 316.296875 C 242.75 315.757812 242.445312 315.1875 242.195312 314.589844 C 241.949219 313.988281 241.761719 313.371094 241.632812 312.734375 C 241.507812 312.101562 241.445312 311.457031 241.445312 310.808594 L 241.445312 231.675781 C 241.445312 231.027344 241.507812 230.382812 241.632812 229.75 C 241.761719 229.113281 241.949219 228.496094 242.195312 227.894531 C 242.445312 227.296875 242.75 226.726562 243.109375 226.1875 C 243.46875 225.648438 243.878906 225.152344 244.335938 224.691406 C 244.796875 224.234375 245.292969 223.824219 245.832031 223.464844 C 246.371094 223.101562 246.941406 222.800781 247.539062 222.550781 C 248.140625 222.304688 248.757812 222.117188 249.394531 221.988281 C 250.03125 221.863281 250.671875 221.800781 251.320312 221.800781 C 251.96875 221.800781 252.609375 221.863281 253.246094 221.988281 C 253.882812 222.117188 254.5 222.304688 255.101562 222.550781 C 255.699219 222.800781 256.269531 223.101562 256.808594 223.464844 C 257.347656 223.824219 257.84375 224.234375 258.304688 224.691406 C 258.761719 225.152344 259.171875 225.648438 259.53125 226.1875 C 259.890625 226.726562 260.195312 227.296875 260.445312 227.894531 C 260.691406 228.496094 260.878906 229.113281 261.007812 229.75 C 261.132812 230.382812 261.195312 231.027344 261.195312 231.675781 L 261.195312 300.933594 L 332.566406 300.933594 C 333.214844 300.933594 333.855469 300.996094 334.492188 301.121094 C 335.128906 301.25 335.746094 301.4375 336.34375 301.683594 C 336.945312 301.933594 337.511719 302.238281 338.050781 302.597656 C 338.589844 302.957031 339.089844 303.367188 339.546875 303.824219 C 340.007812 304.285156 340.417969 304.78125 340.777344 305.320312 C 341.136719 305.863281 341.441406 306.429688 341.691406 307.03125 C 341.9375 307.628906 342.125 308.246094 342.25 308.882812 C 342.378906 309.519531 342.441406 310.160156 342.441406 310.808594 C 342.441406 311.457031 342.378906 312.101562 342.25 312.734375 C 342.125 313.371094 341.9375 313.988281 341.691406 314.589844 C 341.441406 315.1875 341.136719 315.757812 340.777344 316.296875 C 340.417969 316.835938 340.007812 317.335938 339.546875 317.792969 C 339.089844 318.25 338.589844 318.660156 338.050781 319.019531 C 337.511719 319.382812 336.945312 319.683594 336.34375 319.933594 C 335.746094 320.183594 335.128906 320.371094 334.492188 320.496094 C 333.855469 320.621094 333.214844 320.683594 332.566406 320.683594 Z M 332.566406 320.683594 " fill-opacity="1" fill-rule="nonzero"/></g><g clip-path="url(#a896b2da2e)"><g transform="matrix(1, 0, 0, 1, -0.000000000000056843, 478)"><g clip-path="url(#655ed0a023)"><g fill="#0097b2" fill-opacity="1"><g transform="translate(0.789909, 130.596729)"><g><path d="M 89.71875 -100.703125 L 41.796875 -100.703125 L 41.796875 -72.96875 L 85.03125 -72.96875 L 85.03125 -48.28125 L 41.796875 -48.28125 L 41.796875 0 L 14.40625 0 L 14.40625 -126.109375 L 89.71875 -126.109375 Z M 89.71875 -100.703125 "/></g></g></g><g fill="#0097b2" fill-opacity="1"><g transform="translate(97.165095, 130.596729)"><g><path d="M 41.796875 -25.40625 L 90.078125 -25.40625 L 90.078125 0 L 14.40625 0 L 14.40625 -126.109375 L 41.796875 -126.109375 Z M 41.796875 -25.40625 "/></g></g></g><g fill="#0097b2" fill-opacity="1"><g transform="translate(191.198454, 130.596729)"><g><path d="M 74.21875 2.703125 C 64.613281 2.703125 55.726562 1.050781 47.5625 -2.25 C 39.394531 -5.550781 32.273438 -10.175781 26.203125 -16.125 C 20.140625 -22.070312 15.425781 -29.035156 12.0625 -37.015625 C 8.707031 -45.003906 7.03125 -53.679688 7.03125 -63.046875 C 7.03125 -72.421875 8.707031 -81.097656 12.0625 -89.078125 C 15.425781 -97.066406 20.140625 -104.035156 26.203125 -109.984375 C 32.273438 -115.929688 39.394531 -120.554688 47.5625 -123.859375 C 55.726562 -127.160156 64.613281 -128.8125 74.21875 -128.8125 C 83.832031 -128.8125 92.722656 -127.160156 100.890625 -123.859375 C 109.054688 -120.554688 116.140625 -115.929688 122.140625 -109.984375 C 128.148438 -104.035156 132.835938 -97.066406 136.203125 -89.078125 C 139.566406 -81.097656 141.25 -72.421875 141.25 -63.046875 C 141.25 -53.679688 139.566406 -45.003906 136.203125 -37.015625 C 132.835938 -29.035156 128.148438 -22.070312 122.140625 -16.125 C 116.140625 -10.175781 109.054688 -5.550781 100.890625 -2.25 C 92.722656 1.050781 83.832031 2.703125 74.21875 2.703125 Z M 74.21875 -23.0625 C 81.789062 -23.0625 88.546875 -24.800781 94.484375 -28.28125 C 100.429688 -31.769531 105.113281 -36.515625 108.53125 -42.515625 C 111.957031 -48.523438 113.671875 -55.367188 113.671875 -63.046875 C 113.671875 -70.617188 111.957031 -77.4375 108.53125 -83.5 C 105.113281 -89.5625 100.429688 -94.332031 94.484375 -97.8125 C 88.546875 -101.300781 81.789062 -103.046875 74.21875 -103.046875 C 66.769531 -103.046875 60.039062 -101.300781 54.03125 -97.8125 C 48.03125 -94.332031 43.289062 -89.5625 39.8125 -83.5 C 36.332031 -77.4375 34.59375 -70.617188 34.59375 -63.046875 C 34.59375 -55.484375 36.332031 -48.671875 39.8125 -42.609375 C 43.289062 -36.546875 48.03125 -31.769531 54.03125 -28.28125 C 60.039062 -24.800781 66.769531 -23.0625 74.21875 -23.0625 Z M 74.21875 -23.0625 "/></g></g></g><g fill="#0097b2" fill-opacity="1"><g transform="translate(339.454106, 130.596729)"><g><path d="M 65.21875 2.703125 C 55.25 2.703125 46.359375 0.570312 38.546875 -3.6875 C 30.742188 -7.957031 24.5625 -13.84375 20 -21.34375 C 15.4375 -28.851562 13.15625 -37.53125 13.15625 -47.375 L 13.15625 -126.109375 L 40.53125 -126.109375 L 40.53125 -48.640625 C 40.53125 -40.835938 42.84375 -34.625 47.46875 -30 C 52.09375 -25.375 58.007812 -23.0625 65.21875 -23.0625 C 72.539062 -23.0625 78.515625 -25.375 83.140625 -30 C 87.765625 -34.625 90.078125 -40.835938 90.078125 -48.640625 L 90.078125 -126.109375 L 117.28125 -126.109375 L 117.28125 -47.375 C 117.28125 -37.53125 115.023438 -28.851562 110.515625 -21.34375 C 106.015625 -13.84375 99.832031 -7.957031 91.96875 -3.6875 C 84.101562 0.570312 75.1875 2.703125 65.21875 2.703125 Z M 65.21875 2.703125 "/></g></g></g><g fill="#0097b2" fill-opacity="1"><g transform="translate(469.875863, 130.596729)"><g><path d="M 56.203125 2.515625 C 46.597656 2.515625 38.128906 0.773438 30.796875 -2.703125 C 23.472656 -6.179688 17.738281 -11.164062 13.59375 -17.65625 C 9.457031 -24.144531 7.390625 -31.890625 7.390625 -40.890625 L 34.953125 -40.890625 C 34.953125 -34.765625 37.082031 -30.226562 41.34375 -27.28125 C 45.601562 -24.34375 50.5 -22.875 56.03125 -22.875 C 59.507812 -22.875 62.78125 -23.441406 65.84375 -24.578125 C 68.90625 -25.722656 71.425781 -27.40625 73.40625 -29.625 C 75.394531 -31.851562 76.390625 -34.53125 76.390625 -37.65625 C 76.390625 -40.894531 75.25 -43.445312 72.96875 -45.3125 C 70.6875 -47.175781 67.625 -48.707031 63.78125 -49.90625 C 59.9375 -51.101562 55.734375 -52.242188 51.171875 -53.328125 C 46.484375 -54.410156 41.675781 -55.726562 36.75 -57.28125 C 31.820312 -58.84375 27.253906 -60.914062 23.046875 -63.5 C 18.847656 -66.082031 15.488281 -69.566406 12.96875 -73.953125 C 10.445312 -78.335938 9.1875 -83.894531 9.1875 -90.625 C 9.1875 -102.75 13.300781 -112.082031 21.53125 -118.625 C 29.757812 -125.175781 40.898438 -128.453125 54.953125 -128.453125 C 69.359375 -128.453125 80.523438 -124.816406 88.453125 -117.546875 C 96.378906 -110.285156 100.34375 -100.410156 100.34375 -87.921875 L 73.328125 -87.921875 C 73.328125 -93.316406 71.40625 -97.304688 67.5625 -99.890625 C 63.71875 -102.472656 59.273438 -103.765625 54.234375 -103.765625 C 49.785156 -103.765625 45.695312 -102.800781 41.96875 -100.875 C 38.25 -98.957031 36.390625 -95.957031 36.390625 -91.875 C 36.390625 -88.875 37.5 -86.503906 39.71875 -84.765625 C 41.945312 -83.023438 44.890625 -81.582031 48.546875 -80.4375 C 52.210938 -79.300781 56.269531 -78.191406 60.71875 -77.109375 C 65.519531 -75.910156 70.441406 -74.5 75.484375 -72.875 C 80.523438 -71.25 85.207031 -69.054688 89.53125 -66.296875 C 93.851562 -63.535156 97.363281 -59.875 100.0625 -55.3125 C 102.769531 -50.75 104.125 -44.984375 104.125 -38.015625 C 104.125 -28.890625 101.929688 -21.320312 97.546875 -15.3125 C 93.171875 -9.3125 87.378906 -4.835938 80.171875 -1.890625 C 72.960938 1.046875 64.972656 2.515625 56.203125 2.515625 Z M 56.203125 2.515625 "/></g></g></g><g fill="#0097b2" fill-opacity="1"><g transform="translate(581.382872, 130.596729)"><g><path d="M 56.203125 2.515625 C 46.597656 2.515625 38.128906 0.773438 30.796875 -2.703125 C 23.472656 -6.179688 17.738281 -11.164062 13.59375 -17.65625 C 9.457031 -24.144531 7.390625 -31.890625 7.390625 -40.890625 L 34.953125 -40.890625 C 34.953125 -34.765625 37.082031 -30.226562 41.34375 -27.28125 C 45.601562 -24.34375 50.5 -22.875 56.03125 -22.875 C 59.507812 -22.875 62.78125 -23.441406 65.84375 -24.578125 C 68.90625 -25.722656 71.425781 -27.40625 73.40625 -29.625 C 75.394531 -31.851562 76.390625 -34.53125 76.390625 -37.65625 C 76.390625 -40.894531 75.25 -43.445312 72.96875 -45.3125 C 70.6875 -47.175781 67.625 -48.707031 63.78125 -49.90625 C 59.9375 -51.101562 55.734375 -52.242188 51.171875 -53.328125 C 46.484375 -54.410156 41.675781 -55.726562 36.75 -57.28125 C 31.820312 -58.84375 27.253906 -60.914062 23.046875 -63.5 C 18.847656 -66.082031 15.488281 -69.566406 12.96875 -73.953125 C 10.445312 -78.335938 9.1875 -83.894531 9.1875 -90.625 C 9.1875 -102.75 13.300781 -112.082031 21.53125 -118.625 C 29.757812 -125.175781 40.898438 -128.453125 54.953125 -128.453125 C 69.359375 -128.453125 80.523438 -124.816406 88.453125 -117.546875 C 96.378906 -110.285156 100.34375 -100.410156 100.34375 -87.921875 L 73.328125 -87.921875 C 73.328125 -93.316406 71.40625 -97.304688 67.5625 -99.890625 C 63.71875 -102.472656 59.273438 -103.765625 54.234375 -103.765625 C 49.785156 -103.765625 45.695312 -102.800781 41.96875 -100.875 C 38.25 -98.957031 36.390625 -95.957031 36.390625 -91.875 C 36.390625 -88.875 37.5 -86.503906 39.71875 -84.765625 C 41.945312 -83.023438 44.890625 -81.582031 48.546875 -80.4375 C 52.210938 -79.300781 56.269531 -78.191406 60.71875 -77.109375 C 65.519531 -75.910156 70.441406 -74.5 75.484375 -72.875 C 80.523438 -71.25 85.207031 -69.054688 89.53125 -66.296875 C 93.851562 -63.535156 97.363281 -59.875 100.0625 -55.3125 C 102.769531 -50.75 104.125 -44.984375 104.125 -38.015625 C 104.125 -28.890625 101.929688 -21.320312 97.546875 -15.3125 C 93.171875 -9.3125 87.378906 -4.835938 80.171875 -1.890625 C 72.960938 1.046875 64.972656 2.515625 56.203125 2.515625 Z M 56.203125 2.515625 "/></g></g></g><g fill="#0097b2" fill-opacity="1"><g transform="translate(692.889881, 130.596729)"><g><path d="M 119.4375 -126.109375 L 75.125 -50.984375 L 75.125 0 L 47.015625 0 L 47.015625 -51.171875 L 3.0625 -126.109375 L 32.0625 -126.109375 L 61.25 -75.671875 L 90.4375 -126.109375 Z M 119.4375 -126.109375 "/></g></g></g></g></g></g></g></g></svg>