<svg xmlns="http://www.w3.org/2000/svg" xmlns:xlink="http://www.w3.org/1999/xlink" width="2000" zoomAndPan="magnify" viewBox="0 0 1500 1499.999933" height="2000" preserveAspectRatio="xMidYMid meet" version="1.0"><defs><clipPath id="80f53bdd96"><path d="M 0.8125 349 L 1465.03125 349 L 1465.03125 1499.761719 L 0.8125 1499.761719 Z M 0.8125 349 " clip-rule="nonzero"/></clipPath><clipPath id="eb1a7d684f"><path d="M 168 538.179688 L 1197 538.179688 L 1197 1335.398438 L 168 1335.398438 Z M 168 538.179688 " clip-rule="nonzero"/></clipPath><clipPath id="12c9a2288f"><path d="M 368.039062 1146.128906 L 1126.675781 1146.128906 L 1126.675781 1330.476562 L 368.039062 1330.476562 Z M 368.039062 1146.128906 " clip-rule="nonzero"/></clipPath><clipPath id="dc3d4c12d0"><path d="M 0.0390625 0.128906 L 758.675781 0.128906 L 758.675781 184.476562 L 0.0390625 184.476562 Z M 0.0390625 0.128906 " clip-rule="nonzero"/></clipPath><clipPath id="ac5eb85c3c"><rect x="0" width="759" y="0" height="185"/></clipPath><clipPath id="8251650667"><rect x="0" width="1466" y="0" height="1500"/></clipPath></defs><g transform="matrix(1, 0, 0, 1, 17, 0.000000000000112854)"><g clip-path="url(#8251650667)"><g clip-path="url(#80f53bdd96)"><path fill="#1e98d4" d="M 1255.984375 349.039062 L 210.007812 349.039062 C 80.410156 349.039062 0.8125 470.894531 0.8125 558.234375 L 0.8125 1303.804688 C 0.8125 1411.75 88.675781 1499.613281 196.621094 1499.613281 L 1269.371094 1499.613281 C 1377.316406 1499.613281 1465.179688 1411.75 1465.179688 1303.804688 L 1465.179688 552.863281 C 1465.179688 446.210938 1365.496094 349.039062 1255.984375 349.039062 Z M 1203.753906 1011.492188 C 1155.605469 1011.492188 1116.519531 972.511719 1116.519531 924.359375 C 1116.519531 876.210938 1155.605469 837.160156 1203.753906 837.160156 C 1251.765625 837.160156 1290.847656 876.210938 1290.847656 924.359375 C 1290.847656 972.511719 1251.765625 1011.492188 1203.753906 1011.492188 Z M 1203.753906 1011.492188 " fill-opacity="1" fill-rule="nonzero"/></g><path fill="#1e98d4" d="M 210.007812 279.308594 L 1186.25 279.308594 L 1186.25 162.785156 C 1186.25 106.375 1186.25 1.324219 1072.238281 1.324219 C 1046.40625 1.324219 1014.957031 6.449219 973.324219 17.429688 C 868.414062 45.078125 253.835938 215.46875 244.664062 218.152344 C 153.386719 252.53125 95.613281 286.386719 59.421875 326.097656 C 101.855469 297.367188 152.828125 279.308594 210.007812 279.308594 Z M 210.007812 279.308594 " fill-opacity="1" fill-rule="nonzero"/><g clip-path="url(#eb1a7d684f)"><path fill="#ffffff" d="M 536.855469 538.144531 C 486.96875 538.144531 441.628906 567.125 420.6875 612.40625 L 183.632812 1124.875 C 146.867188 1204.347656 181.496094 1298.589844 260.976562 1335.347656 L 530.460938 752.765625 C 546.277344 718.582031 580.503906 696.699219 618.164062 696.699219 L 1038.105469 696.699219 C 1125.675781 696.699219 1196.664062 625.714844 1196.664062 538.144531 Z M 873.804688 1168.277344 L 873.804688 1168.265625 L 492.589844 1168.265625 C 426.5625 1168.265625 373.042969 1239.265625 373.042969 1326.835938 L 754.261719 1326.835938 C 820.273438 1326.835938 873.804688 1255.847656 873.804688 1168.277344 Z M 894.628906 1007.460938 L 513.414062 1007.460938 C 513.414062 919.886719 566.9375 848.898438 632.957031 848.898438 L 1014.175781 848.898438 C 1014.175781 936.472656 960.65625 1007.460938 894.628906 1007.460938 " fill-opacity="1" fill-rule="nonzero"/></g><g clip-path="url(#12c9a2288f)"><g transform="matrix(1, 0, 0, 1, 368, 1146)"><g clip-path="url(#ac5eb85c3c)"><g clip-path="url(#dc3d4c12d0)"><path fill="#1e98d4" d="M 0.0390625 0.128906 L 759.03125 0.128906 L 759.03125 184.476562 L 0.0390625 184.476562 Z M 0.0390625 0.128906 " fill-opacity="1" fill-rule="nonzero"/></g></g></g></g></g></g></svg>